<?xml version="1.0" encoding="iso-8859-1"?>
<!-- Generator: Adobe Illustrator 19.0.0, SVG Export Plug-In . SVG Version: 6.00 Build 0)  -->
<svg version="1.1" id="Layer_1" xmlns="http://www.w3.org/2000/svg" xmlns:xlink="http://www.w3.org/1999/xlink" x="0px" y="0px"
	 viewBox="0 0 512 512" style="enable-background:new 0 0 512 512;" xml:space="preserve">
<circle style="fill:#FF8E31;" cx="256" cy="256" r="256"/>
<path style="fill:#ED7425;" d="M512,256c0-2.396-0.12-4.751-0.182-7.122l-133.67-133.65v-0.036h-6.106v0.809H139.958v-0.809h-6.106
	v21.975l7.388,7.396v160.105h-1.283v-0.584h-6.106v9.656l60.006,60.004l-16.34,7.944c-0.911-0.407-1.974-0.625-3.034-0.625
	c-4.319,0-7.867,3.548-7.867,7.859c0,1.874,0.66,3.587,1.756,4.943c0,0,0.036,0.038,0.036,0.072l1.06,1.06
	c0.044,0,0.077,0.036,0.077,0.036l115.3,115.297C412.644,496.003,512,387.628,512,256z M139.958,136.806v-0.438h1.283v0.358
	L139.958,136.806z M139.958,313.38v-0.261h4.27L139.958,313.38z"/>
<g>
	<polygon style="fill:#FFFFFF;" points="174.449,383.176 178.158,390.802 256.579,352.701 252.877,345.052 	"/>
	<polygon style="fill:#FFFFFF;" points="337.559,383.176 333.844,390.802 255.419,352.701 259.141,345.052 	"/>
	<rect x="251.776" y="313.114" style="fill:#FFFFFF;" width="8.476" height="77.691"/>
</g>
<g>
	<path style="fill:#283A4D;" d="M263.864,388.936c0,4.352-3.51,7.864-7.857,7.864c-4.347,0-7.859-3.512-7.859-7.864
		c0-4.334,3.512-7.852,7.859-7.852C260.355,381.082,263.864,384.599,263.864,388.936z"/>
	<path style="fill:#283A4D;" d="M182.346,388.936c0,4.352-3.528,7.864-7.869,7.864c-4.326,0-7.859-3.512-7.859-7.864
		c0-4.334,3.533-7.852,7.859-7.852C178.819,381.082,182.346,384.599,182.346,388.936z"/>
	<path style="fill:#283A4D;" d="M345.39,388.936c0,4.352-3.533,7.864-7.872,7.864c-4.326,0-7.844-3.512-7.844-7.864
		c0-4.334,3.517-7.852,7.844-7.852C341.857,381.082,345.39,384.599,345.39,388.936z"/>
</g>
<rect x="141.261" y="136.397" style="fill:#FFFFFF;" width="229.504" height="168.284"/>
<rect x="138.65" y="115.994" style="fill:#5D6D7E;" width="234.726" height="20.383"/>
<g>
	<rect x="133.862" y="115.2" style="fill:#283A4D;" width="6.116" height="21.983"/>
	<rect x="372.019" y="115.2" style="fill:#283A4D;" width="6.111" height="21.983"/>
</g>
<rect x="138.65" y="304.666" style="fill:#5D6D7E;" width="234.726" height="8.451"/>
<g>
	<rect x="133.862" y="304.077" style="fill:#283A4D;" width="6.116" height="9.672"/>
	<rect x="372.019" y="304.077" style="fill:#283A4D;" width="6.111" height="9.672"/>
</g>
<polygon style="fill:#C1D354;" points="198.715,199.992 161.736,236.979 235.697,236.979 "/>
<polygon style="fill:#FF8E31;" points="280.42,186.079 229.517,236.979 331.338,236.979 "/>
<polygon style="fill:#0575A5;" points="313.295,199.992 276.319,236.979 350.292,236.979 "/>
<polygon style="fill:#34495E;" points="235.697,210.028 208.748,236.979 262.659,236.979 "/>
<rect x="177.357" y="158.208" style="fill:#C1D354;" width="28.288" height="5.202"/>
<rect x="220.365" y="158.208" style="fill:#34495E;" width="28.288" height="5.202"/>
<rect x="263.373" y="158.208" style="fill:#FF8E31;" width="28.288" height="5.202"/>
<rect x="306.381" y="158.208" style="fill:#0575A5;" width="28.288" height="5.202"/>
<rect x="161.51" y="253.85" style="fill:#5D6D7E;" width="41.011" height="20.531"/>
<g>
	<rect x="208.23" y="253.85" style="fill:#B8D1E6;" width="60.137" height="3.543"/>
	<rect x="282.138" y="253.85" style="fill:#B8D1E6;" width="68.378" height="3.543"/>
	<rect x="208.23" y="262.349" style="fill:#B8D1E6;" width="30.067" height="3.546"/>
	<rect x="251.776" y="262.349" style="fill:#B8D1E6;" width="16.681" height="3.546"/>
	<rect x="273.792" y="262.349" style="fill:#B8D1E6;" width="16.694" height="3.546"/>
	<rect x="295.834" y="262.349" style="fill:#B8D1E6;" width="54.697" height="3.546"/>
	<rect x="208.23" y="270.822" style="fill:#B8D1E6;" width="8.279" height="3.548"/>
	<rect x="233.088" y="270.822" style="fill:#B8D1E6;" width="117.432" height="3.548"/>
	<rect x="226.842" y="279.322" style="fill:#B8D1E6;" width="123.674" height="3.535"/>
	<rect x="161.51" y="279.322" style="fill:#B8D1E6;" width="58.386" height="3.535"/>
</g>
<g>
</g>
<g>
</g>
<g>
</g>
<g>
</g>
<g>
</g>
<g>
</g>
<g>
</g>
<g>
</g>
<g>
</g>
<g>
</g>
<g>
</g>
<g>
</g>
<g>
</g>
<g>
</g>
<g>
</g>
</svg>
